<svg width="1000" height="1000" viewBox="0 0 1000 1000" fill="none" xmlns="http://www.w3.org/2000/svg">
<path d="M300.558 340.987C314.3 303.232 294.523 260.262 254.393 258.292C227.987 256.995 201.385 260.017 175.658 267.394C126.431 281.51 82.936 310.847 51.4074 351.202C19.8788 391.557 1.93495 440.857 0.147724 492.037C-1.63951 543.217 12.8216 593.648 41.4584 636.104C70.0952 678.56 111.438 710.86 159.56 728.375C207.683 745.891 260.115 747.722 309.342 733.606C358.569 719.49 402.064 690.153 433.593 649.798C450.07 628.708 462.837 605.174 471.527 580.206C484.733 542.26 452.301 507.826 412.147 506.424L400.35 506.012C366.711 504.838 339.66 533.695 318.937 560.219V560.219C306.326 576.361 288.928 588.096 269.237 593.742C249.546 599.389 228.573 598.656 209.324 591.65C190.075 584.644 173.538 571.724 162.083 554.742C150.629 537.759 144.844 517.587 145.559 497.115C146.274 476.643 153.452 456.923 166.063 440.781C178.674 424.639 196.072 412.904 215.763 407.258V407.258C248.119 397.98 285.008 383.709 296.521 352.079L300.558 340.987Z" fill="#2D99FF"/>
<circle cx="757.5" cy="500.5" r="242.5" fill="url(#paint0_linear_51_18)"/>
<defs>
<linearGradient id="paint0_linear_51_18" x1="515" y1="500.5" x2="1000" y2="500.5" gradientUnits="userSpaceOnUse">
<stop stop-color="#2D99FF"/>
<stop offset="1" stop-color="#9D99FF"/>
</linearGradient>
</defs>
</svg>
